<?xml version="1.0" encoding="UTF-8" standalone="no"?><!DOCTYPE svg PUBLIC "-//W3C//DTD SVG 1.1//EN" "http://www.w3.org/Graphics/SVG/1.1/DTD/svg11.dtd"><svg width="100%" height="100%" viewBox="0 0 9375 9375" version="1.1" xmlns="http://www.w3.org/2000/svg" xmlns:xlink="http://www.w3.org/1999/xlink" xml:space="preserve" xmlns:serif="http://www.serif.com/" style="fill-rule:evenodd;clip-rule:evenodd;stroke-linejoin:round;stroke-miterlimit:2;"><rect id="Artboard1" x="0" y="0" width="9375" height="9375" style="fill:none;"/><g id="Artboard11" serif:id="Artboard1"><path d="M7609.5,0c468.24,0 917.303,186.008 1248.4,517.104c331.096,331.095 517.104,780.158 517.104,1248.4l0,5844c-0,468.24 -186.008,917.303 -517.104,1248.4c-331.095,331.096 -780.158,517.104 -1248.4,517.104l-5844,0c-468.24,-0 -917.303,-186.008 -1248.4,-517.104c-331.096,-331.095 -517.104,-780.158 -517.104,-1248.4l-0,-5844c0,-975.06 790.442,-1765.5 1765.5,-1765.5l5844,-0Z" style="fill:#0f766e;"/><circle cx="4687.5" cy="4687.5" r="2881.81" style="fill:#fff;"/></g></svg>